# https://github.com/mikedh/trimesh
mtllib material.mtl

o mesh_m0-PolyPaper15_-156396
usemtl BlocksPaper
v 1.86781529 -0.20781397 -0.00068132
v 1.86781529 -0.18018878 -0.10377989
v -1.13677188 -0.18018818 -0.10377989
v -1.13677196 -0.20781335 -0.00068132
v 1.86781529 -0.18018878 -0.10377989
v 1.86781529 -0.10471536 -0.17925341
v -1.13677188 -0.10471478 -0.17925332
v -1.13677188 -0.18018818 -0.10377989
v 1.86781529 -0.10471536 -0.17925341
v 1.86781529 -0.00161670 -0.20687860
v -1.13677188 -0.00161618 -0.20687851
v -1.13677188 -0.10471478 -0.17925332
v 1.86781529 -0.00161670 -0.20687860
v 1.86781529 0.10148195 -0.17925341
v -1.13677188 0.10148242 -0.17925332
v -1.13677188 -0.00161618 -0.20687851
v 1.86781529 0.10148195 -0.17925341
v 1.86781529 0.17695538 -0.10377998
v -1.13677188 0.17695582 -0.10377994
v -1.13677188 0.10148242 -0.17925332
v 1.86781529 0.17695538 -0.10377998
v 1.86781529 0.20458061 -0.00068132
v -1.13677188 0.20458105 -0.00068132
v -1.13677188 0.17695582 -0.10377994
v 1.86781529 0.20458061 -0.00068132
v 1.86781529 0.17695538 0.10241725
v -1.13677188 0.17695582 0.10241725
v -1.13677188 0.20458105 -0.00068132
v 1.86781529 0.17695538 0.10241725
v 1.86781529 0.10148195 0.17789089
v -1.13677188 0.10148244 0.17789071
v -1.13677188 0.17695582 0.10241725
v 1.86781529 0.10148195 0.17789089
v 1.86781529 -0.00161666 0.20551599
v -1.13677188 -0.00161613 0.20551582
v -1.13677188 0.10148244 0.17789071
v 1.86781529 -0.00161666 0.20551599
v 1.86781529 -0.10471530 0.17789089
v -1.13677188 -0.10471473 0.17789071
v -1.13677188 -0.00161613 0.20551582
v 1.86781529 -0.10471530 0.17789089
v 1.86781529 -0.18018879 0.10241725
v -1.13677188 -0.18018821 0.10241725
v -1.13677188 -0.10471473 0.17789071
v 1.86781529 -0.18018879 0.10241725
v 1.86781529 -0.20781397 -0.00068132
v -1.13677196 -0.20781335 -0.00068132
v -1.13677188 -0.18018821 0.10241725
v 1.86781529 -0.18018879 0.10241725
v 1.86781529 -0.10471530 0.17789089
v 2.02246301 -0.08512661 0.14396323
v 2.02246301 -0.14626016 0.08282957
v -1.13677196 -0.20781335 -0.00068132
v -1.13677188 -0.18018818 -0.10377989
v -1.39451861 -0.18018849 -0.10377972
v -1.39451861 -0.20781366 -0.00068115
v 1.86781529 -0.10471530 0.17789089
v 1.86781529 -0.00161666 0.20551599
v 2.02246301 -0.00161677 0.16633958
v 2.02246301 -0.08512661 0.14396323
v 1.86781529 -0.00161666 0.20551599
v 1.86781529 0.10148195 0.17789089
v 2.02246301 0.08189318 0.14396314
v 2.02246301 -0.00161677 0.16633958
v 1.86781529 0.10148195 0.17789089
v 1.86781529 0.17695538 0.10241725
v 2.02246301 0.14302667 0.08282965
v 2.02246301 0.08189318 0.14396314
v 1.86781529 0.17695538 0.10241725
v 1.86781529 0.20458061 -0.00068132
v 2.02246301 0.16540315 -0.00068001
v 2.02246301 0.14302667 0.08282965
v 1.86781529 0.20458061 -0.00068132
v 1.86781529 0.17695538 -0.10377998
v 2.02246301 0.14302671 -0.08419020
v 2.02246301 0.16540315 -0.00068001
v 1.86781529 0.17695538 -0.10377998
v 1.86781529 0.10148195 -0.17925341
v 2.02246301 0.08189313 -0.14532373
v 2.02246301 0.14302671 -0.08419020
v 1.86781529 0.10148195 -0.17925341
v 1.86781529 -0.00161670 -0.20687860
v 2.02246301 -0.00161679 -0.16770017
v 2.02246301 0.08189313 -0.14532373
v 1.86781529 -0.00161670 -0.20687860
v 1.86781529 -0.10471536 -0.17925341
v 2.02246301 -0.08512666 -0.14532360
v 2.02246301 -0.00161679 -0.16770017
v 1.86781529 -0.10471536 -0.17925341
v 1.86781529 -0.18018878 -0.10377989
v 2.02246301 -0.14626019 -0.08419011
v 2.02246301 -0.08512666 -0.14532360
v 1.86781529 -0.18018878 -0.10377989
v 1.86781529 -0.20781397 -0.00068132
v 2.02246301 -0.16863657 -0.00068018
v 2.02246301 -0.14626019 -0.08419011
v 1.86781529 -0.20781397 -0.00068132
v 1.86781529 -0.18018879 0.10241725
v 2.02246301 -0.14626016 0.08282957
v 2.02246301 -0.16863657 -0.00068018
v 2.02246301 -0.14626016 0.08282957
v 2.02246301 -0.08512661 0.14396323
v 2.16238256 -0.05640765 0.09422093
v 2.16238256 -0.09651736 0.05411124
v 2.02246301 -0.08512661 0.14396323
v 2.02246301 -0.00161677 0.16633958
v 2.16238256 -0.00161677 0.10890205
v 2.16238256 -0.05640765 0.09422093
v 2.02246301 -0.00161677 0.16633958
v 2.02246301 0.08189318 0.14396314
v 2.16238256 0.05317404 0.09422102
v 2.16238256 -0.00161677 0.10890205
v 2.02246301 0.08189318 0.14396314
v 2.02246301 0.14302667 0.08282965
v 2.16238256 0.09328379 0.05411124
v 2.16238256 0.05317404 0.09422102
v 2.02246301 0.14302667 0.08282965
v 2.02246301 0.16540315 -0.00068001
v 2.16238256 0.10796496 -0.00067939
v 2.16238256 0.09328379 0.05411124
v 2.02246301 0.16540315 -0.00068001
v 2.02246301 0.14302671 -0.08419020
v 2.16238256 0.09328375 -0.05547047
v 2.16238256 0.10796496 -0.00067939
v 2.02246301 0.14302671 -0.08419020
v 2.02246301 0.08189313 -0.14532373
v 2.16238256 0.05317404 -0.09558024
v 2.16238256 0.09328375 -0.05547047
v 2.02246301 0.08189313 -0.14532373
v 2.02246301 -0.00161679 -0.16770017
v 2.16238256 -0.00161684 -0.11026128
v 2.16238256 0.05317404 -0.09558024
v 2.02246301 -0.00161679 -0.16770017
v 2.02246301 -0.08512666 -0.14532360
v 2.16238256 -0.05640765 -0.09558006
v 2.16238256 -0.00161684 -0.11026128
v 2.02246301 -0.08512666 -0.14532360
v 2.02246301 -0.14626019 -0.08419011
v 2.16238256 -0.09651740 -0.05547042
v 2.16238256 -0.05640765 -0.09558006
v 2.02246301 -0.14626019 -0.08419011
v 2.02246301 -0.16863657 -0.00068018
v 2.16238256 -0.11119850 -0.00067948
v 2.16238256 -0.09651740 -0.05547042
v 2.02246301 -0.16863657 -0.00068018
v 2.02246301 -0.14626016 0.08282957
v 2.16238256 -0.09651736 0.05411124
v 2.16238256 -0.11119850 -0.00067948
v 2.16238256 -0.09651736 0.05411124
v 2.16238256 -0.05640765 0.09422093
v 2.23602433 -0.02782315 0.04471135
v 2.23602433 -0.04700751 0.02552706
v 2.16238256 -0.05640765 0.09422093
v 2.16238256 -0.00161677 0.10890205
v 2.23602433 -0.00161684 0.05173324
v 2.23602433 -0.02782315 0.04471135
v 2.16238256 -0.00161677 0.10890205
v 2.16238256 0.05317404 0.09422102
v 2.23602433 0.02458948 0.04471126
v 2.23602433 -0.00161684 0.05173324
v 2.16238256 0.05317404 0.09422102
v 2.16238256 0.09328379 0.05411124
v 2.23602433 0.04377386 0.02552697
v 2.23602433 0.02458948 0.04471126
v 2.16238256 0.09328379 0.05411124
v 2.16238256 0.10796496 -0.00067939
v 2.23602433 0.05079582 -0.00067913
v 2.23602433 0.04377386 0.02552697
v 2.16238256 0.10796496 -0.00067939
v 2.16238256 0.09328375 -0.05547047
v 2.23602433 0.04377380 -0.02688558
v 2.23602433 0.05079582 -0.00067913
v 2.16238256 0.09328375 -0.05547047
v 2.16238256 0.05317404 -0.09558024
v 2.23602433 0.02458946 -0.04607005
v 2.23602433 0.04377380 -0.02688558
v 2.16238256 0.05317404 -0.09558024
v 2.16238256 -0.00161684 -0.11026128
v 2.23602433 -0.00161679 -0.05309190
v 2.23602433 0.02458946 -0.04607005
v 2.16238256 -0.00161684 -0.11026128
v 2.16238256 -0.05640765 -0.09558006
v 2.23602433 -0.02782311 -0.04606996
v 2.23602433 -0.00161679 -0.05309190
v 2.16238256 -0.05640765 -0.09558006
v 2.16238256 -0.09651740 -0.05547042
v 2.23602433 -0.04700749 -0.02688567
v 2.23602433 -0.02782311 -0.04606996
v 2.16238256 -0.09651740 -0.05547042
v 2.16238256 -0.11119850 -0.00067948
v 2.23602433 -0.05402945 -0.00067939
v 2.23602433 -0.04700749 -0.02688567
v 2.16238256 -0.11119850 -0.00067948
v 2.16238256 -0.09651736 0.05411124
v 2.23602433 -0.04700751 0.02552706
v 2.23602433 -0.05402945 -0.00067939
v 2.23602433 -0.04700751 0.02552706
v 2.23602433 -0.02782315 0.04471135
v 2.26548139 -0.01554397 0.02344332
v 2.26548139 -0.02573935 0.01324807
v 2.23602433 -0.02782315 0.04471135
v 2.23602433 -0.00161684 0.05173324
v 2.26548139 -0.00161686 0.02717510
v 2.26548139 -0.01554397 0.02344332
v 2.23602433 -0.00161684 0.05173324
v 2.23602433 0.02458948 0.04471126
v 2.26548139 0.01231021 0.02344332
v 2.26548139 -0.00161686 0.02717510
v 2.23602433 0.02458948 0.04471126
v 2.23602433 0.04377386 0.02552697
v 2.26548139 0.02250562 0.01324798
v 2.26548139 0.01231021 0.02344332
v 2.23602433 0.04377386 0.02552697
v 2.23602433 0.05079582 -0.00067913
v 2.26548139 0.02623739 -0.00067904
v 2.26548139 0.02250562 0.01324798
v 2.23602433 0.05079582 -0.00067913
v 2.23602433 0.04377380 -0.02688558
v 2.26548139 0.02250559 -0.01460624
v 2.26548139 0.02623739 -0.00067904
v 2.23602433 0.04377380 -0.02688558
v 2.23602433 0.02458946 -0.04607005
v 2.26548139 0.01231021 -0.02480167
v 2.26548139 0.02250559 -0.01460624
v 2.23602433 0.02458946 -0.04607005
v 2.23602433 -0.00161679 -0.05309190
v 2.26548139 -0.00161688 -0.02853327
v 2.26548139 0.01231021 -0.02480167
v 2.23602433 -0.00161679 -0.05309190
v 2.23602433 -0.02782311 -0.04606996
v 2.26548139 -0.01554393 -0.02480167
v 2.26548139 -0.00161688 -0.02853327
v 2.23602433 -0.02782311 -0.04606996
v 2.23602433 -0.04700749 -0.02688567
v 2.26548139 -0.02573933 -0.01460624
v 2.26548139 -0.01554393 -0.02480167
v 2.23602433 -0.04700749 -0.02688567
v 2.23602433 -0.05402945 -0.00067939
v 2.26548139 -0.02947109 -0.00067904
v 2.26548139 -0.02573933 -0.01460624
v 2.23602433 -0.05402945 -0.00067939
v 2.23602433 -0.04700751 0.02552706
v 2.26548139 -0.02573935 0.01324807
v 2.26548139 -0.02947109 -0.00067904
v 2.26548139 -0.02573935 0.01324807
v 2.26548139 -0.01554397 0.02344332
v 2.26548139 -0.00161686 0.02717510
v 2.26548139 0.01231021 0.02344332
v 2.26548139 0.02250562 0.01324798
v 2.26548139 0.02623739 -0.00067904
v 2.26548139 0.02250559 -0.01460624
v 2.26548139 0.01231021 -0.02480167
v 2.26548139 -0.00161688 -0.02853327
v 2.26548139 -0.01554393 -0.02480167
v 2.26548139 -0.02573933 -0.01460624
v 2.26548139 -0.02947109 -0.00067904
v -1.13677188 -0.18018818 -0.10377989
v -1.13677188 -0.10471478 -0.17925332
v -1.39451861 -0.10471515 -0.17925314
v -1.39451861 -0.18018849 -0.10377972
v -1.13677188 -0.10471478 -0.17925332
v -1.13677188 -0.00161618 -0.20687851
v -1.39451861 -0.00161648 -0.20687833
v -1.39451861 -0.10471515 -0.17925314
v -1.13677188 -0.00161618 -0.20687851
v -1.13677188 0.10148242 -0.17925332
v -1.39451861 0.10148213 -0.17925310
v -1.39451861 -0.00161648 -0.20687833
v -1.13677188 0.10148242 -0.17925332
v -1.13677188 0.17695582 -0.10377994
v -1.39451861 0.17695555 -0.10377972
v -1.39451861 0.10148213 -0.17925310
v -1.13677188 0.17695582 -0.10377994
v -1.13677188 0.20458105 -0.00068132
v -1.39451861 0.20458079 -0.00068115
v -1.39451861 0.17695555 -0.10377972
v -1.13677188 0.20458105 -0.00068132
v -1.13677188 0.17695582 0.10241725
v -1.39451861 0.17695560 0.10241742
v -1.39451861 0.20458079 -0.00068115
v -1.13677188 0.17695582 0.10241725
v -1.13677188 0.10148244 0.17789071
v -1.39451861 0.10148215 0.17789089
v -1.39451861 0.17695560 0.10241742
v -1.13677188 0.10148244 0.17789071
v -1.13677188 -0.00161613 0.20551582
v -1.39451861 -0.00161642 0.20551599
v -1.39451861 0.10148215 0.17789089
v -1.13677188 -0.00161613 0.20551582
v -1.13677188 -0.10471473 0.17789071
v -1.39451861 -0.10471505 0.17789089
v -1.39451861 -0.00161642 0.20551599
v -1.13677188 -0.10471473 0.17789071
v -1.13677188 -0.18018821 0.10241725
v -1.39451861 -0.18018857 0.10241751
v -1.39451861 -0.10471505 0.17789089
v -1.13677188 -0.18018821 0.10241725
v -1.13677196 -0.20781335 -0.00068132
v -1.39451861 -0.20781366 -0.00068115
v -1.39451861 -0.18018857 0.10241751
v -1.39451861 -0.20781366 -0.00068115
v -1.39451861 -0.18018849 -0.10377972
v -1.39451861 -0.14625979 -0.08419107
v -1.39451861 -0.16863619 -0.00068124
v -1.39451861 -0.18018849 -0.10377972
v -1.39451861 -0.10471515 -0.17925314
v -1.39451861 -0.08512646 -0.14532447
v -1.39451861 -0.14625979 -0.08419107
v -1.39451861 -0.10471515 -0.17925314
v -1.39451861 -0.00161648 -0.20687833
v -1.39451861 -0.00161644 -0.16770096
v -1.39451861 -0.08512646 -0.14532447
v -1.39451861 -0.00161648 -0.20687833
v -1.39451861 0.10148213 -0.17925310
v -1.39451861 0.08189346 -0.14532452
v -1.39451861 -0.00161644 -0.16770096
v -1.39451861 0.10148213 -0.17925310
v -1.39451861 0.17695555 -0.10377972
v -1.39451861 0.14302693 -0.08419099
v -1.39451861 0.08189346 -0.14532452
v -1.39451861 0.17695555 -0.10377972
v -1.39451861 0.20458079 -0.00068115
v -1.39451861 0.16540341 -0.00068106
v -1.39451861 0.14302693 -0.08419099
v -1.39451861 0.20458079 -0.00068115
v -1.39451861 0.17695560 0.10241742
v -1.39451861 0.14302697 0.08282878
v -1.39451861 0.16540341 -0.00068106
v -1.39451861 0.17695560 0.10241742
v -1.39451861 0.10148215 0.17789089
v -1.39451861 0.08189348 0.14396218
v -1.39451861 0.14302697 0.08282878
v -1.39451861 0.10148215 0.17789089
v -1.39451861 -0.00161642 0.20551599
v -1.39451861 -0.00161642 0.16633853
v -1.39451861 0.08189348 0.14396218
v -1.39451861 -0.00161642 0.20551599
v -1.39451861 -0.10471505 0.17789089
v -1.39451861 -0.08512638 0.14396226
v -1.39451861 -0.00161642 0.16633853
v -1.39451861 -0.10471505 0.17789089
v -1.39451861 -0.18018857 0.10241751
v -1.39451861 -0.14625990 0.08282878
v -1.39451861 -0.08512638 0.14396226
v -1.39451861 -0.18018857 0.10241751
v -1.39451861 -0.20781366 -0.00068115
v -1.39451861 -0.16863619 -0.00068124
v -1.39451861 -0.14625990 0.08282878
v -1.39451861 -0.16863619 -0.00068124
v -1.39451861 -0.14625979 -0.08419107
v -0.87902549 -0.14625977 -0.08419028
v -0.87902549 -0.16863619 -0.00068045
v -1.39451861 -0.14625979 -0.08419107
v -1.39451861 -0.08512646 -0.14532447
v -0.87902549 -0.08512649 -0.14532360
v -0.87902549 -0.14625977 -0.08419028
v -1.39451861 -0.08512646 -0.14532447
v -1.39451861 -0.00161644 -0.16770096
v -0.87902549 -0.00161646 -0.16770008
v -0.87902549 -0.08512649 -0.14532360
v -1.39451861 -0.00161644 -0.16770096
v -1.39451861 0.08189346 -0.14532452
v -0.87902549 0.08189357 -0.14532377
v -0.87902549 -0.00161646 -0.16770008
v -1.39451861 0.08189346 -0.14532452
v -1.39451861 0.14302693 -0.08419099
v -0.87902549 0.14302710 -0.08419020
v -0.87902549 0.08189357 -0.14532377
v -1.39451861 0.14302693 -0.08419099
v -1.39451861 0.16540341 -0.00068106
v -0.87902549 0.16540350 -0.00068018
v -0.87902549 0.14302710 -0.08419020
v -1.39451861 0.16540341 -0.00068106
v -1.39451861 0.14302697 0.08282878
v -0.87902549 0.14302706 0.08282965
v -0.87902549 0.16540350 -0.00068018
v -1.39451861 0.14302697 0.08282878
v -1.39451861 0.08189348 0.14396218
v -0.87902549 0.08189355 0.14396305
v -0.87902549 0.14302706 0.08282965
v -1.39451861 0.08189348 0.14396218
v -1.39451861 -0.00161642 0.16633853
v -0.87902549 -0.00161635 0.16633940
v -0.87902549 0.08189355 0.14396305
v -1.39451861 -0.00161642 0.16633853
v -1.39451861 -0.08512638 0.14396226
v -0.87902549 -0.08512633 0.14396314
v -0.87902549 -0.00161635 0.16633940
v -1.39451861 -0.08512638 0.14396226
v -1.39451861 -0.14625990 0.08282878
v -0.87902549 -0.14625983 0.08282957
v -0.87902549 -0.08512633 0.14396314
v -1.39451861 -0.14625990 0.08282878
v -1.39451861 -0.16863619 -0.00068124
v -0.87902549 -0.16863619 -0.00068045
v -0.87902549 -0.14625983 0.08282957
v -0.87902549 -0.16863619 -0.00068045
v -0.87902549 -0.14625977 -0.08419028
v -0.87902549 -0.08512649 -0.14532360
v -0.87902549 -0.00161646 -0.16770008
v -0.87902549 0.08189357 -0.14532377
v -0.87902549 0.14302710 -0.08419020
v -0.87902549 0.16540350 -0.00068018
v -0.87902549 0.14302706 0.08282965
v -0.87902549 0.08189355 0.14396305
v -0.87902549 -0.00161635 0.16633940
v -0.87902549 -0.08512633 0.14396314
v -0.87902549 -0.14625983 0.08282957
v -1.23619169 -0.21147899 -0.00069186
v -1.23619152 -0.18336053 -0.10563134
v -1.24330620 -0.18336064 -0.10563143
v -1.24330620 -0.21147910 -0.00069186
v -1.23619152 -0.18336053 -0.10563134
v -1.23619152 -0.10653943 -0.18245249
v -1.24330620 -0.10653950 -0.18245257
v -1.24330620 -0.18336064 -0.10563143
v -1.23619152 -0.10653943 -0.18245249
v -1.23619152 -0.00159987 -0.21057096
v -1.24330620 -0.00159989 -0.21057104
v -1.24330620 -0.10653950 -0.18245257
v -1.23619152 -0.00159987 -0.21057096
v -1.23619152 0.10333968 -0.18245249
v -1.24330620 0.10333974 -0.18245257
v -1.24330620 -0.00159989 -0.21057104
v -1.23619152 0.10333968 -0.18245249
v -1.23619152 0.18016078 -0.10563139
v -1.24330620 0.18016091 -0.10563143
v -1.24330620 0.10333974 -0.18245257
v -1.23619152 0.18016078 -0.10563139
v -1.23619152 0.20827925 -0.00069186
v -1.24330603 0.20827942 -0.00069186
v -1.24330620 0.18016091 -0.10563143
v -1.23619152 0.20827925 -0.00069186
v -1.23619152 0.18016078 0.10424771
v -1.24330620 0.18016082 0.10424771
v -1.24330603 0.20827942 -0.00069186
v -1.23619152 0.18016078 0.10424771
v -1.23619152 0.10333970 0.18106881
v -1.24330620 0.10333972 0.18106881
v -1.24330620 0.18016082 0.10424771
v -1.23619152 0.10333970 0.18106881
v -1.23619152 -0.00159985 0.20918728
v -1.24330620 -0.00159985 0.20918737
v -1.24330620 0.10333972 0.18106881
v -1.23619152 -0.00159985 0.20918728
v -1.23619152 -0.10653939 0.18106881
v -1.24330620 -0.10653943 0.18106890
v -1.24330620 -0.00159985 0.20918737
v -1.23619152 -0.10653939 0.18106881
v -1.23619152 -0.18336053 0.10424771
v -1.24330620 -0.18336063 0.10424762
v -1.24330620 -0.10653943 0.18106890
v -1.23619152 -0.18336053 0.10424771
v -1.23619169 -0.21147899 -0.00069186
v -1.24330620 -0.21147910 -0.00069186
v -1.24330620 -0.18336063 0.10424762
v -1.23619152 -0.18336053 0.10424771
v -1.23619152 -0.10653939 0.18106881
v -1.23619152 -0.00159985 0.20918728
v -1.23619152 0.10333970 0.18106881
v -1.23619152 0.18016078 0.10424771
v -1.23619152 0.20827925 -0.00069186
v -1.23619152 0.18016078 -0.10563139
v -1.23619152 0.10333968 -0.18245249
v -1.23619152 -0.00159987 -0.21057096
v -1.23619152 -0.10653943 -0.18245249
v -1.23619152 -0.18336053 -0.10563134
v -1.23619169 -0.21147899 -0.00069186
v -1.24330620 -0.21147910 -0.00069186
v -1.24330620 -0.18336064 -0.10563143
v -1.24330620 -0.10653950 -0.18245257
v -1.24330620 -0.00159989 -0.21057104
v -1.24330620 0.10333974 -0.18245257
v -1.24330620 0.18016091 -0.10563143
v -1.24330603 0.20827942 -0.00069186
v -1.24330620 0.18016082 0.10424771
v -1.24330620 0.10333972 0.18106881
v -1.24330620 -0.00159985 0.20918737
v -1.24330620 -0.10653943 0.18106890
v -1.24330620 -0.18336063 0.10424762
v -1.11838171 -0.21882872 -0.00073329
v -1.11838171 -0.18972362 -0.10935500
v -1.19202357 -0.18972366 -0.10935504
v -1.19202357 -0.21882874 -0.00073329
v -1.11838171 -0.18972362 -0.10935500
v -1.11838171 -0.11020700 -0.18887163
v -1.19202357 -0.11020702 -0.18887167
v -1.19202357 -0.18972366 -0.10935504
v -1.11838171 -0.11020700 -0.18887163
v -1.11838171 -0.00158528 -0.21797675
v -1.19202357 -0.00158528 -0.21797679
v -1.19202357 -0.11020702 -0.18887167
v -1.11838171 -0.00158528 -0.21797675
v -1.11838162 0.10703645 -0.18887167
v -1.19202357 0.10703647 -0.18887171
v -1.19202357 -0.00158528 -0.21797679
v -1.11838162 0.10703645 -0.18887167
v -1.11838162 0.18655310 -0.10935504
v -1.19202357 0.18655314 -0.10935504
v -1.19202357 0.10703647 -0.18887171
v -1.11838162 0.18655310 -0.10935504
v -1.11838162 0.21565818 -0.00073329
v -1.19202340 0.21565826 -0.00073329
v -1.19202357 0.18655314 -0.10935504
v -1.11838162 0.21565818 -0.00073329
v -1.11838162 0.18655306 0.10788845
v -1.19202357 0.18655310 0.10788845
v -1.19202340 0.21565826 -0.00073329
v -1.11838162 0.18655306 0.10788845
v -1.11838162 0.10703647 0.18740499
v -1.19202357 0.10703649 0.18740499
v -1.19202357 0.18655310 0.10788845
v -1.11838162 0.10703647 0.18740499
v -1.11838171 -0.00158525 0.21651020
v -1.19202357 -0.00158523 0.21651020
v -1.19202357 0.10703649 0.18740499
v -1.11838171 -0.00158525 0.21651020
v -1.11838171 -0.11020695 0.18740508
v -1.19202357 -0.11020696 0.18740517
v -1.19202357 -0.00158523 0.21651020
v -1.11838171 -0.11020695 0.18740508
v -1.11838171 -0.18972362 0.10788836
v -1.19202357 -0.18972366 0.10788836
v -1.19202357 -0.11020696 0.18740517
v -1.11838171 -0.18972362 0.10788836
v -1.11838171 -0.21882872 -0.00073329
v -1.19202357 -0.21882874 -0.00073329
v -1.19202357 -0.18972366 0.10788836
v -1.11838171 -0.18972362 0.10788836
v -1.11838171 -0.11020695 0.18740508
v -1.11838171 -0.00158525 0.21651020
v -1.11838162 0.10703647 0.18740499
v -1.11838162 0.18655306 0.10788845
v -1.11838162 0.21565818 -0.00073329
v -1.11838162 0.18655310 -0.10935504
v -1.11838162 0.10703645 -0.18887167
v -1.11838171 -0.00158528 -0.21797675
v -1.11838171 -0.11020700 -0.18887163
v -1.11838171 -0.18972362 -0.10935500
v -1.11838171 -0.21882872 -0.00073329
v -1.19202357 -0.21882874 -0.00073329
v -1.19202357 -0.18972366 -0.10935504
v -1.19202357 -0.11020702 -0.18887167
v -1.19202357 -0.00158528 -0.21797679
v -1.19202357 0.10703647 -0.18887171
v -1.19202357 0.18655314 -0.10935504
v -1.19202340 0.21565826 -0.00073329
v -1.19202357 0.18655310 0.10788845
v -1.19202357 0.10703649 0.18740499
v -1.19202357 -0.00158523 0.21651020
v -1.19202357 -0.11020696 0.18740517
v -1.19202357 -0.18972366 0.10788836
v -1.09991903 0.59122424 -0.04488746
v -1.09991903 0.17882987 -0.04488737
v -0.68752475 0.17882987 -0.04488737
v -1.09991903 0.59122424 0.05821111
v -0.68752475 0.17882987 0.05821129
v -1.09991903 0.17882987 0.05821129
v -1.09991903 0.59122424 -0.04488746
v -1.09991903 0.59122424 0.05821111
v -1.09991903 0.17882987 0.05821129
v -1.09991903 0.17882987 -0.04488737
v -0.98209211 0.56913162 -0.05225163
v -0.68752475 0.17882987 -0.04488737
v -0.68752475 0.17882987 0.05821129
v -0.98209211 0.56913162 0.05084694
v -1.09991903 0.59122424 -0.04488746
v -0.98209211 0.56913162 -0.05225163
v -0.98209211 0.56913162 0.05084694
v -1.09991903 0.59122424 0.05821111
v -1.09991903 0.17882987 -0.04488737
v -1.09991903 0.17882987 0.05821129
v -0.68752475 0.17882987 0.05821129
v -0.68752475 0.17882987 -0.04488737
v -0.68752475 0.17882987 -0.04488737
v -0.98209211 0.56913162 -0.05225163
v -1.09991903 0.59122424 -0.04488746
v -1.09991903 0.59122424 0.05821111
v -0.98209211 0.56913162 0.05084694
v -0.68752475 0.17882987 0.05821129
v -1.08522009 0.05364691 0.59581458
v -1.08522000 0.05364684 0.18342021
v -0.67282572 0.05364691 0.18342030
v -1.08522009 -0.04945168 0.59581458
v -0.67282563 -0.04945168 0.18342030
v -1.08522000 -0.04945175 0.18342021
v -1.08522009 0.05364691 0.59581458
v -1.08522009 -0.04945168 0.59581458
v -1.08522000 -0.04945175 0.18342021
v -1.08522000 0.05364684 0.18342021
v -0.96739316 0.06101109 0.57372196
v -0.67282572 0.05364691 0.18342030
v -0.67282563 -0.04945168 0.18342030
v -0.96739316 -0.04208751 0.57372196
v -1.08522009 0.05364691 0.59581458
v -0.96739316 0.06101109 0.57372196
v -0.96739316 -0.04208751 0.57372196
v -1.08522009 -0.04945168 0.59581458
v -1.08522000 0.05364684 0.18342021
v -1.08522000 -0.04945175 0.18342021
v -0.67282563 -0.04945168 0.18342030
v -0.67282572 0.05364691 0.18342030
v -0.67282572 0.05364691 0.18342030
v -0.96739316 0.06101109 0.57372196
v -1.08522009 0.05364691 0.59581458
v -1.08522009 -0.04945168 0.59581458
v -0.96739316 -0.04208751 0.57372196
v -0.67282563 -0.04945168 0.18342030
v -1.06312255 -0.57969677 0.05084983
v -1.06312255 -0.16730238 0.05084983
v -0.65072818 -0.16730238 0.05085001
v -1.06312255 -0.57969677 -0.05224874
v -0.65072818 -0.16730240 -0.05224865
v -1.06312255 -0.16730238 -0.05224883
v -1.06312255 -0.57969677 0.05084983
v -1.06312255 -0.57969677 -0.05224874
v -1.06312255 -0.16730238 -0.05224883
v -1.06312255 -0.16730238 0.05084983
v -0.94529563 -0.55760417 0.05821401
v -0.65072818 -0.16730238 0.05085001
v -0.65072818 -0.16730240 -0.05224865
v -0.94529563 -0.55760417 -0.04488456
v -1.06312255 -0.57969677 0.05084983
v -0.94529563 -0.55760417 0.05821401
v -0.94529563 -0.55760417 -0.04488456
v -1.06312255 -0.57969677 -0.05224874
v -1.06312255 -0.16730238 0.05084983
v -1.06312255 -0.16730238 -0.05224883
v -0.65072818 -0.16730240 -0.05224865
v -0.65072818 -0.16730238 0.05085001
v -0.65072818 -0.16730238 0.05085001
v -0.94529563 -0.55760417 0.05821401
v -1.06312255 -0.57969677 0.05084983
v -1.06312255 -0.57969677 -0.05224874
v -0.94529563 -0.55760417 -0.04488456
v -0.65072818 -0.16730240 -0.05224865
v -1.09993791 -0.04945078 -0.58245897
v -1.09993800 -0.04945074 -0.17006465
v -0.68754363 -0.04945074 -0.17006456
v -1.09993791 0.05364781 -0.58245897
v -0.68754363 0.05364785 -0.17006456
v -1.09993800 0.05364785 -0.17006465
v -1.09993791 -0.04945078 -0.58245897
v -1.09993791 0.05364781 -0.58245897
v -1.09993800 0.05364785 -0.17006465
v -1.09993800 -0.04945074 -0.17006465
v -0.98211098 -0.05681494 -0.56036635
v -0.68754363 -0.04945074 -0.17006456
v -0.68754363 0.05364785 -0.17006456
v -0.98211098 0.04628365 -0.56036635
v -1.09993791 -0.04945078 -0.58245897
v -0.98211098 -0.05681494 -0.56036635
v -0.98211098 0.04628365 -0.56036635
v -1.09993791 0.05364781 -0.58245897
v -1.09993800 -0.04945074 -0.17006465
v -1.09993800 0.05364785 -0.17006465
v -0.68754363 0.05364785 -0.17006456
v -0.68754363 -0.04945074 -0.17006456
v -0.68754363 -0.04945074 -0.17006456
v -0.98211098 -0.05681494 -0.56036635
v -1.09993791 -0.04945078 -0.58245897
v -1.09993791 0.05364781 -0.58245897
v -0.98211098 0.04628365 -0.56036635
v -0.68754363 0.05364785 -0.17006456
v -0.27886194 -0.21149234 -0.00073145
v -0.27886194 -0.18337389 -0.10567098
v -0.28597649 -0.18337400 -0.10567107
v -0.28597649 -0.21149245 -0.00073145
v -0.27886194 -0.18337389 -0.10567098
v -0.27886194 -0.10655279 -0.18249212
v -0.28597649 -0.10655285 -0.18249221
v -0.28597649 -0.18337400 -0.10567107
v -0.27886194 -0.10655279 -0.18249212
v -0.27886190 -0.00161321 -0.21061059
v -0.28597649 -0.00161324 -0.21061068
v -0.28597649 -0.10655285 -0.18249221
v -0.27886190 -0.00161321 -0.21061059
v -0.27886185 0.10332633 -0.18249212
v -0.28597649 0.10332640 -0.18249221
v -0.28597649 -0.00161324 -0.21061068
v -0.27886185 0.10332633 -0.18249212
v -0.27886185 0.18014744 -0.10567102
v -0.28597649 0.18014757 -0.10567107
v -0.28597649 0.10332640 -0.18249221
v -0.27886185 0.18014744 -0.10567102
v -0.27886185 0.20826591 -0.00073145
v -0.28597636 0.20826608 -0.00073145
v -0.28597649 0.18014757 -0.10567107
v -0.27886185 0.20826591 -0.00073145
v -0.27886185 0.18014744 0.10420812
v -0.28597649 0.18014748 0.10420812
v -0.28597636 0.20826608 -0.00073145
v -0.27886185 0.18014744 0.10420812
v -0.27886185 0.10332636 0.18102922
v -0.28597649 0.10332638 0.18102922
v -0.28597649 0.18014748 0.10420812
v -0.27886185 0.10332636 0.18102922
v -0.27886190 -0.00161319 0.20914769
v -0.28597649 -0.00161319 0.20914778
v -0.28597649 0.10332638 0.18102922
v -0.27886190 -0.00161319 0.20914769
v -0.27886194 -0.10655274 0.18102922
v -0.28597649 -0.10655279 0.18102931
v -0.28597649 -0.00161319 0.20914778
v -0.27886194 -0.10655274 0.18102922
v -0.27886194 -0.18337389 0.10420812
v -0.28597649 -0.18337398 0.10420803
v -0.28597649 -0.10655279 0.18102931
v -0.27886194 -0.18337389 0.10420812
v -0.27886194 -0.21149234 -0.00073145
v -0.28597649 -0.21149245 -0.00073145
v -0.28597649 -0.18337398 0.10420803
v -0.27886194 -0.18337389 0.10420812
v -0.27886194 -0.10655274 0.18102922
v -0.27886190 -0.00161319 0.20914769
v -0.27886185 0.10332636 0.18102922
v -0.27886185 0.18014744 0.10420812
v -0.27886185 0.20826591 -0.00073145
v -0.27886185 0.18014744 -0.10567102
v -0.27886185 0.10332633 -0.18249212
v -0.27886190 -0.00161321 -0.21061059
v -0.27886194 -0.10655279 -0.18249212
v -0.27886194 -0.18337389 -0.10567098
v -0.27886194 -0.21149234 -0.00073145
v -0.28597649 -0.21149245 -0.00073145
v -0.28597649 -0.18337400 -0.10567107
v -0.28597649 -0.10655285 -0.18249221
v -0.28597649 -0.00161324 -0.21061068
v -0.28597649 0.10332640 -0.18249221
v -0.28597649 0.18014757 -0.10567107
v -0.28597636 0.20826608 -0.00073145
v -0.28597649 0.18014748 0.10420812
v -0.28597649 0.10332638 0.18102922
v -0.28597649 -0.00161319 0.20914778
v -0.28597649 -0.10655279 0.18102931
v -0.28597649 -0.18337398 0.10420803
v 0.28082973 -0.21883234 -0.00070266
v 0.28082976 -0.18972724 -0.10932436
v 0.20718789 -0.18972728 -0.10932440
v 0.20718789 -0.21883236 -0.00070266
v 0.28082976 -0.18972724 -0.10932436
v 0.28082976 -0.11021062 -0.18884099
v 0.20718789 -0.11021064 -0.18884103
v 0.20718789 -0.18972728 -0.10932440
v 0.28082976 -0.11021062 -0.18884099
v 0.28082978 -0.00158890 -0.21794611
v 0.20718789 -0.00158890 -0.21794615
v 0.20718789 -0.11021064 -0.18884103
v 0.28082978 -0.00158890 -0.21794611
v 0.28082980 0.10703283 -0.18884103
v 0.20718789 0.10703287 -0.18884108
v 0.20718789 -0.00158890 -0.21794615
v 0.28082980 0.10703283 -0.18884103
v 0.28082980 0.18654946 -0.10932440
v 0.20718789 0.18654954 -0.10932440
v 0.20718789 0.10703287 -0.18884108
v 0.28082980 0.18654946 -0.10932440
v 0.28082982 0.21565458 -0.00070266
v 0.20718807 0.21565466 -0.00070266
v 0.20718789 0.18654954 -0.10932440
v 0.28082982 0.21565458 -0.00070266
v 0.28082980 0.18654946 0.10791909
v 0.20718789 0.18654946 0.10791909
v 0.20718807 0.21565466 -0.00070266
v 0.28082980 0.18654946 0.10791909
v 0.28082980 0.10703283 0.18743563
v 0.20718789 0.10703287 0.18743563
v 0.20718789 0.18654946 0.10791909
v 0.28082980 0.10703283 0.18743563
v 0.28082978 -0.00158888 0.21654084
v 0.20718789 -0.00158885 0.21654084
v 0.20718789 0.10703287 0.18743563
v 0.28082978 -0.00158888 0.21654084
v 0.28082976 -0.11021057 0.18743572
v 0.20718789 -0.11021058 0.18743581
v 0.20718789 -0.00158885 0.21654084
v 0.28082976 -0.11021057 0.18743572
v 0.28082976 -0.18972724 0.10791900
v 0.20718789 -0.18972728 0.10791900
v 0.20718789 -0.11021058 0.18743581
v 0.28082976 -0.18972724 0.10791900
v 0.28082973 -0.21883234 -0.00070266
v 0.20718789 -0.21883236 -0.00070266
v 0.20718789 -0.18972728 0.10791900
v 0.28082976 -0.18972724 0.10791900
v 0.28082976 -0.11021057 0.18743572
v 0.28082978 -0.00158888 0.21654084
v 0.28082980 0.10703283 0.18743563
v 0.28082980 0.18654946 0.10791909
v 0.28082982 0.21565458 -0.00070266
v 0.28082980 0.18654946 -0.10932440
v 0.28082980 0.10703283 -0.18884103
v 0.28082978 -0.00158890 -0.21794611
v 0.28082976 -0.11021062 -0.18884099
v 0.28082976 -0.18972724 -0.10932436
v 0.28082973 -0.21883234 -0.00070266
v 0.20718789 -0.21883236 -0.00070266
v 0.20718789 -0.18972728 -0.10932440
v 0.20718789 -0.11021064 -0.18884103
v 0.20718789 -0.00158890 -0.21794615
v 0.20718789 0.10703287 -0.18884108
v 0.20718789 0.18654954 -0.10932440
v 0.20718807 0.21565466 -0.00070266
v 0.20718789 0.18654946 0.10791909
v 0.20718789 0.10703287 0.18743563
v 0.20718789 -0.00158885 0.21654084
v 0.20718789 -0.11021058 0.18743581
v 0.20718789 -0.18972728 0.10791900
v 0.84791039 -0.21884376 -0.00071881
v 0.84791039 -0.18973867 -0.10934047
v 0.77426853 -0.18973871 -0.10934051
v 0.77426853 -0.21884379 -0.00071881
v 0.84791039 -0.18973867 -0.10934047
v 0.84791039 -0.11022205 -0.18885710
v 0.77426853 -0.11022207 -0.18885714
v 0.77426853 -0.18973871 -0.10934051
v 0.84791039 -0.11022205 -0.18885710
v 0.84791039 -0.00160031 -0.21796222
v 0.77426853 -0.00160031 -0.21796226
v 0.77426853 -0.11022207 -0.18885714
v 0.84791039 -0.00160031 -0.21796222
v 0.84791044 0.10702142 -0.18885714
v 0.77426853 0.10702146 -0.18885719
v 0.77426853 -0.00160031 -0.21796226
v 0.84791044 0.10702142 -0.18885714
v 0.84791044 0.18653804 -0.10934051
v 0.77426853 0.18653813 -0.10934051
v 0.77426853 0.10702146 -0.18885719
v 0.84791044 0.18653804 -0.10934051
v 0.84791048 0.21564316 -0.00071881
v 0.77426871 0.21564325 -0.00071881
v 0.77426853 0.18653813 -0.10934051
v 0.84791048 0.21564316 -0.00071881
v 0.84791044 0.18653804 0.10790294
v 0.77426853 0.18653804 0.10790294
v 0.77426871 0.21564325 -0.00071881
v 0.84791044 0.18653804 0.10790294
v 0.84791044 0.10702142 0.18741948
v 0.77426853 0.10702146 0.18741948
v 0.77426853 0.18653804 0.10790294
v 0.84791044 0.10702142 0.18741948
v 0.84791039 -0.00160029 0.21652469
v 0.77426853 -0.00160027 0.21652469
v 0.77426853 0.10702146 0.18741948
v 0.84791039 -0.00160029 0.21652469
v 0.84791039 -0.11022199 0.18741957
v 0.77426853 -0.11022200 0.18741965
v 0.77426853 -0.00160027 0.21652469
v 0.84791039 -0.11022199 0.18741957
v 0.84791039 -0.18973867 0.10790285
v 0.77426853 -0.18973871 0.10790285
v 0.77426853 -0.11022200 0.18741965
v 0.84791039 -0.18973867 0.10790285
v 0.84791039 -0.21884376 -0.00071881
v 0.77426853 -0.21884379 -0.00071881
v 0.77426853 -0.18973871 0.10790285
v 0.84791039 -0.18973867 0.10790285
v 0.84791039 -0.11022199 0.18741957
v 0.84791039 -0.00160029 0.21652469
v 0.84791044 0.10702142 0.18741948
v 0.84791044 0.18653804 0.10790294
v 0.84791048 0.21564316 -0.00071881
v 0.84791044 0.18653804 -0.10934051
v 0.84791044 0.10702142 -0.18885714
v 0.84791039 -0.00160031 -0.21796222
v 0.84791039 -0.11022205 -0.18885710
v 0.84791039 -0.18973867 -0.10934047
v 0.84791039 -0.21884376 -0.00071881
v 0.77426853 -0.21884379 -0.00071881
v 0.77426853 -0.18973871 -0.10934051
v 0.77426853 -0.11022207 -0.18885714
v 0.77426853 -0.00160031 -0.21796226
v 0.77426853 0.10702146 -0.18885719
v 0.77426853 0.18653813 -0.10934051
v 0.77426871 0.21564325 -0.00071881
v 0.77426853 0.18653804 0.10790294
v 0.77426853 0.10702146 0.18741948
v 0.77426853 -0.00160027 0.21652469
v 0.77426853 -0.11022200 0.18741965
v 0.77426853 -0.18973871 0.10790285
v 1.03201417 -0.21146352 -0.00071442
v 1.03201417 -0.18334506 -0.10565399
v 1.02489957 -0.18334517 -0.10565408
v 1.02489957 -0.21146362 -0.00071442
v 1.03201417 -0.18334506 -0.10565399
v 1.03201417 -0.10652396 -0.18247514
v 1.02489957 -0.10652402 -0.18247522
v 1.02489957 -0.18334517 -0.10565408
v 1.03201417 -0.10652396 -0.18247514
v 1.03201426 -0.00158440 -0.21059361
v 1.02489957 -0.00158442 -0.21059369
v 1.02489957 -0.10652402 -0.18247522
v 1.03201426 -0.00158440 -0.21059361
v 1.03201426 0.10335515 -0.18247514
v 1.02489957 0.10335522 -0.18247522
v 1.02489957 -0.00158442 -0.21059369
v 1.03201426 0.10335515 -0.18247514
v 1.03201426 0.18017627 -0.10565404
v 1.02489957 0.18017641 -0.10565408
v 1.02489957 0.10335522 -0.18247522
v 1.03201426 0.18017627 -0.10565404
v 1.03201426 0.20829474 -0.00071442
v 1.02489975 0.20829492 -0.00071442
v 1.02489957 0.18017641 -0.10565408
v 1.03201426 0.20829474 -0.00071442
v 1.03201426 0.18017627 0.10422515
v 1.02489957 0.18017632 0.10422515
v 1.02489975 0.20829492 -0.00071442
v 1.03201426 0.18017627 0.10422515
v 1.03201426 0.10335517 0.18104625
v 1.02489957 0.10335519 0.18104625
v 1.02489957 0.18017632 0.10422515
v 1.03201426 0.10335517 0.18104625
v 1.03201426 -0.00158438 0.20916472
v 1.02489957 -0.00158438 0.20916481
v 1.02489957 0.10335519 0.18104625
v 1.03201426 -0.00158438 0.20916472
v 1.03201417 -0.10652391 0.18104625
v 1.02489957 -0.10652396 0.18104634
v 1.02489957 -0.00158438 0.20916481
v 1.03201417 -0.10652391 0.18104625
v 1.03201417 -0.18334506 0.10422515
v 1.02489957 -0.18334516 0.10422506
v 1.02489957 -0.10652396 0.18104634
v 1.03201417 -0.18334506 0.10422515
v 1.03201417 -0.21146352 -0.00071442
v 1.02489957 -0.21146362 -0.00071442
v 1.02489957 -0.18334516 0.10422506
v 1.03201417 -0.18334506 0.10422515
v 1.03201417 -0.10652391 0.18104625
v 1.03201426 -0.00158438 0.20916472
v 1.03201426 0.10335517 0.18104625
v 1.03201426 0.18017627 0.10422515
v 1.03201426 0.20829474 -0.00071442
v 1.03201426 0.18017627 -0.10565404
v 1.03201426 0.10335515 -0.18247514
v 1.03201426 -0.00158440 -0.21059361
v 1.03201417 -0.10652396 -0.18247514
v 1.03201417 -0.18334506 -0.10565399
v 1.03201417 -0.21146352 -0.00071442
v 1.02489957 -0.21146362 -0.00071442
v 1.02489957 -0.18334517 -0.10565408
v 1.02489957 -0.10652402 -0.18247522
v 1.02489957 -0.00158442 -0.21059369
v 1.02489957 0.10335522 -0.18247522
v 1.02489957 0.18017641 -0.10565408
v 1.02489975 0.20829492 -0.00071442
v 1.02489957 0.18017632 0.10422515
v 1.02489957 0.10335519 0.18104625
v 1.02489957 -0.00158438 0.20916481
v 1.02489957 -0.10652396 0.18104634
v 1.02489957 -0.18334516 0.10422506
v 1.39896776 0.19962727 -0.04719733
v 1.39674734 0.19288081 -0.07142987
v 1.39667983 0.18651044 -0.06965015
v 1.39890025 0.19325689 -0.04541761
v 1.39674734 0.19288081 -0.07142987
v 1.38224802 0.18746065 -0.09138112
v 1.38218051 0.18109028 -0.08960140
v 1.39667983 0.18651044 -0.06965015
v 1.38224802 0.18746065 -0.09138112
v 1.35935486 0.18481907 -0.10170516
v 1.35928735 0.17844870 -0.09992543
v 1.38218051 0.18109028 -0.08960140
v 1.35935486 0.18481907 -0.10170516
v 1.33420204 0.18566390 -0.09963565
v 1.33413453 0.17929352 -0.09785592
v 1.35928735 0.17844870 -0.09992543
v 1.33420204 0.18566390 -0.09963565
v 1.31352931 0.18976877 -0.08572714
v 1.31346171 0.18339835 -0.08394742
v 1.33413453 0.17929352 -0.09785592
v 1.31352931 0.18976877 -0.08572714
v 1.30287580 0.19603376 -0.06370642
v 1.30280821 0.18966338 -0.06192670
v 1.31346171 0.18339835 -0.08394742
v 1.30287580 0.19603376 -0.06370642
v 1.30509613 0.20278021 -0.03947393
v 1.30502863 0.19640984 -0.03769420
v 1.30280821 0.18966338 -0.06192670
v 1.30509613 0.20278021 -0.03947393
v 1.31959545 0.20820037 -0.01952263
v 1.31952794 0.20183000 -0.01774291
v 1.30502863 0.19640984 -0.03769420
v 1.31959545 0.20820037 -0.01952263
v 1.34248861 0.21084200 -0.00919860
v 1.34242110 0.20447162 -0.00741887
v 1.31952794 0.20183000 -0.01774291
v 1.34248861 0.21084200 -0.00919860
v 1.36764143 0.20999713 -0.01126811
v 1.36757392 0.20362680 -0.00948838
v 1.34242110 0.20447162 -0.00741887
v 1.36764143 0.20999713 -0.01126811
v 1.38831425 0.20589230 -0.02517661
v 1.38824674 0.19952192 -0.02339689
v 1.36757392 0.20362680 -0.00948838
v 1.38831425 0.20589230 -0.02517661
v 1.39896776 0.19962727 -0.04719733
v 1.39890025 0.19325689 -0.04541761
v 1.38824674 0.19952192 -0.02339689
v 1.38831425 0.20589230 -0.02517661
v 1.36764143 0.20999713 -0.01126811
v 1.34248861 0.21084200 -0.00919860
v 1.31959545 0.20820037 -0.01952263
v 1.30509613 0.20278021 -0.03947393
v 1.30287580 0.19603376 -0.06370642
v 1.31352931 0.18976877 -0.08572714
v 1.33420204 0.18566390 -0.09963565
v 1.35935486 0.18481907 -0.10170516
v 1.38224802 0.18746065 -0.09138112
v 1.39674734 0.19288081 -0.07142987
v 1.39896776 0.19962727 -0.04719733
v 1.39890025 0.19325689 -0.04541761
v 1.39667983 0.18651044 -0.06965015
v 1.38218051 0.18109028 -0.08960140
v 1.35928735 0.17844870 -0.09992543
v 1.33413453 0.17929352 -0.09785592
v 1.31346171 0.18339835 -0.08394742
v 1.30280821 0.18966338 -0.06192670
v 1.30502863 0.19640984 -0.03769420
v 1.31952794 0.20183000 -0.01774291
v 1.34242110 0.20447162 -0.00741887
v 1.36757392 0.20362680 -0.00948838
v 1.38824674 0.19952192 -0.02339689
v 1.51206309 0.20015777 -0.04528514
v 1.51001859 0.19354010 -0.06956859
v 1.50969694 0.18717266 -0.06780629
v 1.51174143 0.19379034 -0.04352279
v 1.51001859 0.19354010 -0.06956859
v 1.49567853 0.18867182 -0.08977557
v 1.49535687 0.18230434 -0.08801327
v 1.50969694 0.18717266 -0.06780629
v 1.49567853 0.18867182 -0.08977557
v 1.47288518 0.18685729 -0.10049162
v 1.47256353 0.18048985 -0.09872932
v 1.49535687 0.18230434 -0.08801327
v 1.47288518 0.18685729 -0.10049162
v 1.44774615 0.18858276 -0.09884534
v 1.44742449 0.18221532 -0.09708304
v 1.47256353 0.18048985 -0.09872932
v 1.44774615 0.18858276 -0.09884534
v 1.42699730 0.19338590 -0.08527789
v 1.42667564 0.18701842 -0.08351559
v 1.44742449 0.18221532 -0.09708304
v 1.42699730 0.19338590 -0.08527789
v 1.41619824 0.19997969 -0.06342462
v 1.41587667 0.19361221 -0.06166232
v 1.42667564 0.18701842 -0.08351559
v 1.41619824 0.19997969 -0.06342462
v 1.41824273 0.20659732 -0.03914112
v 1.41792108 0.20022989 -0.03737887
v 1.41587667 0.19361221 -0.06166232
v 1.41824273 0.20659732 -0.03914112
v 1.43258280 0.21146564 -0.01893419
v 1.43226115 0.20509821 -0.01717185
v 1.41792108 0.20022989 -0.03737887
v 1.43258280 0.21146564 -0.01893419
v 1.45537615 0.21328018 -0.00821809
v 1.45505449 0.20691270 -0.00645584
v 1.43226115 0.20509821 -0.01717185
v 1.45537615 0.21328018 -0.00821809
v 1.48051518 0.21155470 -0.00986438
v 1.48019362 0.20518723 -0.00810212
v 1.45505449 0.20691270 -0.00645584
v 1.48051518 0.21155470 -0.00986438
v 1.50126412 0.20675156 -0.02343183
v 1.50094247 0.20038409 -0.02166957
v 1.48019362 0.20518723 -0.00810212
v 1.50126412 0.20675156 -0.02343183
v 1.51206309 0.20015777 -0.04528514
v 1.51174143 0.19379034 -0.04352279
v 1.50094247 0.20038409 -0.02166957
v 1.50126412 0.20675156 -0.02343183
v 1.48051518 0.21155470 -0.00986438
v 1.45537615 0.21328018 -0.00821809
v 1.43258280 0.21146564 -0.01893419
v 1.41824273 0.20659732 -0.03914112
v 1.41619824 0.19997969 -0.06342462
v 1.42699730 0.19338590 -0.08527789
v 1.44774615 0.18858276 -0.09884534
v 1.47288518 0.18685729 -0.10049162
v 1.49567853 0.18867182 -0.08977557
v 1.51001859 0.19354010 -0.06956859
v 1.51206309 0.20015777 -0.04528514
v 1.51174143 0.19379034 -0.04352279
v 1.50969694 0.18717266 -0.06780629
v 1.49535687 0.18230434 -0.08801327
v 1.47256353 0.18048985 -0.09872932
v 1.44742449 0.18221532 -0.09708304
v 1.42667564 0.18701842 -0.08351559
v 1.41587667 0.19361221 -0.06166232
v 1.41792108 0.20022989 -0.03737887
v 1.43226115 0.20509821 -0.01717185
v 1.45505449 0.20691270 -0.00645584
v 1.48019362 0.20518723 -0.00810212
v 1.50094247 0.20038409 -0.02166957
v 1.70946160 -0.21146165 -0.00069063
v 1.70946160 -0.18334319 -0.10563011
v 1.70234700 -0.18334330 -0.10563020
v 1.70234700 -0.21146176 -0.00069063
v 1.70946160 -0.18334319 -0.10563011
v 1.70946160 -0.10652209 -0.18245126
v 1.70234700 -0.10652216 -0.18245135
v 1.70234700 -0.18334330 -0.10563020
v 1.70946160 -0.10652209 -0.18245126
v 1.70946168 -0.00158253 -0.21056973
v 1.70234700 -0.00158255 -0.21056982
v 1.70234700 -0.10652216 -0.18245135
v 1.70946168 -0.00158253 -0.21056973
v 1.70946168 0.10335704 -0.18245126
v 1.70234700 0.10335708 -0.18245135
v 1.70234700 -0.00158255 -0.21056982
v 1.70946168 0.10335704 -0.18245126
v 1.70946168 0.18017812 -0.10563016
v 1.70234700 0.18017829 -0.10563020
v 1.70234700 0.10335708 -0.18245135
v 1.70946168 0.18017812 -0.10563016
v 1.70946168 0.20829659 -0.00069063
v 1.70234718 0.20829676 -0.00069063
v 1.70234700 0.18017829 -0.10563020
v 1.70946168 0.20829659 -0.00069063
v 1.70946168 0.18017812 0.10424894
v 1.70234700 0.18017820 0.10424894
v 1.70234718 0.20829676 -0.00069063
v 1.70946168 0.18017812 0.10424894
v 1.70946168 0.10335704 0.18107004
v 1.70234700 0.10335708 0.18107004
v 1.70234700 0.18017820 0.10424894
v 1.70946168 0.10335704 0.18107004
v 1.70946168 -0.00158251 0.20918851
v 1.70234700 -0.00158251 0.20918860
v 1.70234700 0.10335708 0.18107004
v 1.70946168 -0.00158251 0.20918851
v 1.70946160 -0.10652205 0.18107004
v 1.70234700 -0.10652209 0.18107013
v 1.70234700 -0.00158251 0.20918860
v 1.70946160 -0.10652205 0.18107004
v 1.70946160 -0.18334319 0.10424894
v 1.70234700 -0.18334329 0.10424885
v 1.70234700 -0.10652209 0.18107013
v 1.70946160 -0.18334319 0.10424894
v 1.70946160 -0.21146165 -0.00069063
v 1.70234700 -0.21146176 -0.00069063
v 1.70234700 -0.18334329 0.10424885
v 1.70946160 -0.18334319 0.10424894
v 1.70946160 -0.10652205 0.18107004
v 1.70946168 -0.00158251 0.20918851
v 1.70946168 0.10335704 0.18107004
v 1.70946168 0.18017812 0.10424894
v 1.70946168 0.20829659 -0.00069063
v 1.70946168 0.18017812 -0.10563016
v 1.70946168 0.10335704 -0.18245126
v 1.70946168 -0.00158253 -0.21056973
v 1.70946160 -0.10652209 -0.18245126
v 1.70946160 -0.18334319 -0.10563011
v 1.70946160 -0.21146165 -0.00069063
v 1.70234700 -0.21146176 -0.00069063
v 1.70234700 -0.18334330 -0.10563020
v 1.70234700 -0.10652216 -0.18245135
v 1.70234700 -0.00158255 -0.21056982
v 1.70234700 0.10335708 -0.18245135
v 1.70234700 0.18017829 -0.10563020
v 1.70234718 0.20829676 -0.00069063
v 1.70234700 0.18017820 0.10424894
v 1.70234700 0.10335708 0.18107004
v 1.70234700 -0.00158251 0.20918860
v 1.70234700 -0.10652209 0.18107013
v 1.70234700 -0.18334329 0.10424885
f 4 2 1
f 4 3 2
f 8 6 5
f 8 7 6
f 12 10 9
f 12 11 10
f 16 14 13
f 16 15 14
f 20 18 17
f 20 19 18
f 24 22 21
f 24 23 22
f 28 26 25
f 28 27 26
f 32 30 29
f 32 31 30
f 36 34 33
f 36 35 34
f 40 38 37
f 40 39 38
f 44 42 41
f 44 43 42
f 48 46 45
f 48 47 46
f 52 50 49
f 52 51 50
f 56 54 53
f 56 55 54
f 60 58 57
f 60 59 58
f 64 62 61
f 64 63 62
f 68 66 65
f 68 67 66
f 72 70 69
f 72 71 70
f 76 74 73
f 76 75 74
f 80 78 77
f 80 79 78
f 84 82 81
f 84 83 82
f 88 86 85
f 88 87 86
f 92 90 89
f 92 91 90
f 96 94 93
f 96 95 94
f 100 98 97
f 100 99 98
f 104 102 101
f 104 103 102
f 108 106 105
f 108 107 106
f 112 110 109
f 112 111 110
f 116 114 113
f 116 115 114
f 120 118 117
f 120 119 118
f 124 122 121
f 124 123 122
f 128 126 125
f 128 127 126
f 132 130 129
f 132 131 130
f 136 134 133
f 136 135 134
f 140 138 137
f 140 139 138
f 144 142 141
f 144 143 142
f 148 146 145
f 148 147 146
f 152 150 149
f 152 151 150
f 156 154 153
f 156 155 154
f 160 158 157
f 160 159 158
f 164 162 161
f 164 163 162
f 168 166 165
f 168 167 166
f 172 170 169
f 172 171 170
f 176 174 173
f 176 175 174
f 180 178 177
f 180 179 178
f 184 182 181
f 184 183 182
f 188 186 185
f 188 187 186
f 192 190 189
f 192 191 190
f 196 194 193
f 196 195 194
f 200 198 197
f 200 199 198
f 204 202 201
f 204 203 202
f 208 206 205
f 208 207 206
f 212 210 209
f 212 211 210
f 216 214 213
f 216 215 214
f 220 218 217
f 220 219 218
f 224 222 221
f 224 223 222
f 228 226 225
f 228 227 226
f 232 230 229
f 232 231 230
f 236 234 233
f 236 235 234
f 240 238 237
f 240 239 238
f 244 242 241
f 244 243 242
f 256 246 245
f 256 247 246
f 256 248 247
f 256 249 248
f 256 250 249
f 256 251 250
f 256 252 251
f 256 253 252
f 256 254 253
f 256 255 254
f 260 258 257
f 260 259 258
f 264 262 261
f 264 263 262
f 268 266 265
f 268 267 266
f 272 270 269
f 272 271 270
f 276 274 273
f 276 275 274
f 280 278 277
f 280 279 278
f 284 282 281
f 284 283 282
f 288 286 285
f 288 287 286
f 292 290 289
f 292 291 290
f 296 294 293
f 296 295 294
f 300 298 297
f 300 299 298
f 304 302 301
f 304 303 302
f 308 306 305
f 308 307 306
f 312 310 309
f 312 311 310
f 316 314 313
f 316 315 314
f 320 318 317
f 320 319 318
f 324 322 321
f 324 323 322
f 328 326 325
f 328 327 326
f 332 330 329
f 332 331 330
f 336 334 333
f 336 335 334
f 340 338 337
f 340 339 338
f 344 342 341
f 344 343 342
f 348 346 345
f 348 347 346
f 352 350 349
f 352 351 350
f 356 354 353
f 356 355 354
f 360 358 357
f 360 359 358
f 364 362 361
f 364 363 362
f 368 366 365
f 368 367 366
f 372 370 369
f 372 371 370
f 376 374 373
f 376 375 374
f 380 378 377
f 380 379 378
f 384 382 381
f 384 383 382
f 388 386 385
f 388 387 386
f 392 390 389
f 392 391 390
f 396 394 393
f 396 395 394
f 408 398 397
f 408 399 398
f 408 400 399
f 408 401 400
f 408 402 401
f 408 403 402
f 408 404 403
f 408 405 404
f 408 406 405
f 408 407 406
f 412 410 409
f 412 411 410
f 416 414 413
f 416 415 414
f 420 418 417
f 420 419 418
f 424 422 421
f 424 423 422
f 428 426 425
f 428 427 426
f 432 430 429
f 432 431 430
f 436 434 433
f 436 435 434
f 440 438 437
f 440 439 438
f 444 442 441
f 444 443 442
f 448 446 445
f 448 447 446
f 452 450 449
f 452 451 450
f 456 454 453
f 456 455 454
f 468 458 457
f 468 459 458
f 468 460 459
f 468 461 460
f 468 462 461
f 468 463 462
f 468 464 463
f 468 465 464
f 468 466 465
f 468 467 466
f 480 470 469
f 480 471 470
f 480 472 471
f 480 473 472
f 480 474 473
f 480 475 474
f 480 476 475
f 480 477 476
f 480 478 477
f 480 479 478
f 484 482 481
f 484 483 482
f 488 486 485
f 488 487 486
f 492 490 489
f 492 491 490
f 496 494 493
f 496 495 494
f 500 498 497
f 500 499 498
f 504 502 501
f 504 503 502
f 508 506 505
f 508 507 506
f 512 510 509
f 512 511 510
f 516 514 513
f 516 515 514
f 520 518 517
f 520 519 518
f 524 522 521
f 524 523 522
f 528 526 525
f 528 527 526
f 540 530 529
f 540 531 530
f 540 532 531
f 540 533 532
f 540 534 533
f 540 535 534
f 540 536 535
f 540 537 536
f 540 538 537
f 540 539 538
f 552 542 541
f 552 543 542
f 552 544 543
f 552 545 544
f 552 546 545
f 552 547 546
f 552 548 547
f 552 549 548
f 552 550 549
f 552 551 550
f 555 554 553
f 558 557 556
f 562 560 559
f 562 561 560
f 566 564 563
f 566 565 564
f 570 568 567
f 570 569 568
f 574 572 571
f 574 573 572
f 577 576 575
f 580 579 578
f 583 582 581
f 586 585 584
f 590 588 587
f 590 589 588
f 594 592 591
f 594 593 592
f 598 596 595
f 598 597 596
f 602 600 599
f 602 601 600
f 605 604 603
f 608 607 606
f 611 610 609
f 614 613 612
f 618 616 615
f 618 617 616
f 622 620 619
f 622 621 620
f 626 624 623
f 626 625 624
f 630 628 627
f 630 629 628
f 633 632 631
f 636 635 634
f 639 638 637
f 642 641 640
f 646 644 643
f 646 645 644
f 650 648 647
f 650 649 648
f 654 652 651
f 654 653 652
f 658 656 655
f 658 657 656
f 661 660 659
f 664 663 662
f 668 666 665
f 668 667 666
f 672 670 669
f 672 671 670
f 676 674 673
f 676 675 674
f 680 678 677
f 680 679 678
f 684 682 681
f 684 683 682
f 688 686 685
f 688 687 686
f 692 690 689
f 692 691 690
f 696 694 693
f 696 695 694
f 700 698 697
f 700 699 698
f 704 702 701
f 704 703 702
f 708 706 705
f 708 707 706
f 712 710 709
f 712 711 710
f 724 714 713
f 724 715 714
f 724 716 715
f 724 717 716
f 724 718 717
f 724 719 718
f 724 720 719
f 724 721 720
f 724 722 721
f 724 723 722
f 736 726 725
f 736 727 726
f 736 728 727
f 736 729 728
f 736 730 729
f 736 731 730
f 736 732 731
f 736 733 732
f 736 734 733
f 736 735 734
f 740 738 737
f 740 739 738
f 744 742 741
f 744 743 742
f 748 746 745
f 748 747 746
f 752 750 749
f 752 751 750
f 756 754 753
f 756 755 754
f 760 758 757
f 760 759 758
f 764 762 761
f 764 763 762
f 768 766 765
f 768 767 766
f 772 770 769
f 772 771 770
f 776 774 773
f 776 775 774
f 780 778 777
f 780 779 778
f 784 782 781
f 784 783 782
f 796 786 785
f 796 787 786
f 796 788 787
f 796 789 788
f 796 790 789
f 796 791 790
f 796 792 791
f 796 793 792
f 796 794 793
f 796 795 794
f 808 798 797
f 808 799 798
f 808 800 799
f 808 801 800
f 808 802 801
f 808 803 802
f 808 804 803
f 808 805 804
f 808 806 805
f 808 807 806
f 812 810 809
f 812 811 810
f 816 814 813
f 816 815 814
f 820 818 817
f 820 819 818
f 824 822 821
f 824 823 822
f 828 826 825
f 828 827 826
f 832 830 829
f 832 831 830
f 836 834 833
f 836 835 834
f 840 838 837
f 840 839 838
f 844 842 841
f 844 843 842
f 848 846 845
f 848 847 846
f 852 850 849
f 852 851 850
f 856 854 853
f 856 855 854
f 868 858 857
f 868 859 858
f 868 860 859
f 868 861 860
f 868 862 861
f 868 863 862
f 868 864 863
f 868 865 864
f 868 866 865
f 868 867 866
f 880 870 869
f 880 871 870
f 880 872 871
f 880 873 872
f 880 874 873
f 880 875 874
f 880 876 875
f 880 877 876
f 880 878 877
f 880 879 878
f 884 882 881
f 884 883 882
f 888 886 885
f 888 887 886
f 892 890 889
f 892 891 890
f 896 894 893
f 896 895 894
f 900 898 897
f 900 899 898
f 904 902 901
f 904 903 902
f 908 906 905
f 908 907 906
f 912 910 909
f 912 911 910
f 916 914 913
f 916 915 914
f 920 918 917
f 920 919 918
f 924 922 921
f 924 923 922
f 928 926 925
f 928 927 926
f 940 930 929
f 940 931 930
f 940 932 931
f 940 933 932
f 940 934 933
f 940 935 934
f 940 936 935
f 940 937 936
f 940 938 937
f 940 939 938
f 952 942 941
f 952 943 942
f 952 944 943
f 952 945 944
f 952 946 945
f 952 947 946
f 952 948 947
f 952 949 948
f 952 950 949
f 952 951 950
f 956 954 953
f 956 955 954
f 960 958 957
f 960 959 958
f 964 962 961
f 964 963 962
f 968 966 965
f 968 967 966
f 972 970 969
f 972 971 970
f 976 974 973
f 976 975 974
f 980 978 977
f 980 979 978
f 984 982 981
f 984 983 982
f 988 986 985
f 988 987 986
f 992 990 989
f 992 991 990
f 996 994 993
f 996 995 994
f 1000 998 997
f 1000 999 998
f 1012 1002 1001
f 1012 1003 1002
f 1012 1004 1003
f 1012 1005 1004
f 1012 1006 1005
f 1012 1007 1006
f 1012 1008 1007
f 1012 1009 1008
f 1012 1010 1009
f 1012 1011 1010
f 1024 1014 1013
f 1024 1015 1014
f 1024 1016 1015
f 1024 1017 1016
f 1024 1018 1017
f 1024 1019 1018
f 1024 1020 1019
f 1024 1021 1020
f 1024 1022 1021
f 1024 1023 1022
f 1028 1026 1025
f 1028 1027 1026
f 1032 1030 1029
f 1032 1031 1030
f 1036 1034 1033
f 1036 1035 1034
f 1040 1038 1037
f 1040 1039 1038
f 1044 1042 1041
f 1044 1043 1042
f 1048 1046 1045
f 1048 1047 1046
f 1052 1050 1049
f 1052 1051 1050
f 1056 1054 1053
f 1056 1055 1054
f 1060 1058 1057
f 1060 1059 1058
f 1064 1062 1061
f 1064 1063 1062
f 1068 1066 1065
f 1068 1067 1066
f 1072 1070 1069
f 1072 1071 1070
f 1084 1074 1073
f 1084 1075 1074
f 1084 1076 1075
f 1084 1077 1076
f 1084 1078 1077
f 1084 1079 1078
f 1084 1080 1079
f 1084 1081 1080
f 1084 1082 1081
f 1084 1083 1082
f 1096 1086 1085
f 1096 1087 1086
f 1096 1088 1087
f 1096 1089 1088
f 1096 1090 1089
f 1096 1091 1090
f 1096 1092 1091
f 1096 1093 1092
f 1096 1094 1093
f 1096 1095 1094
f 1100 1098 1097
f 1100 1099 1098
f 1104 1102 1101
f 1104 1103 1102
f 1108 1106 1105
f 1108 1107 1106
f 1112 1110 1109
f 1112 1111 1110
f 1116 1114 1113
f 1116 1115 1114
f 1120 1118 1117
f 1120 1119 1118
f 1124 1122 1121
f 1124 1123 1122
f 1128 1126 1125
f 1128 1127 1126
f 1132 1130 1129
f 1132 1131 1130
f 1136 1134 1133
f 1136 1135 1134
f 1140 1138 1137
f 1140 1139 1138
f 1144 1142 1141
f 1144 1143 1142
f 1156 1146 1145
f 1156 1147 1146
f 1156 1148 1147
f 1156 1149 1148
f 1156 1150 1149
f 1156 1151 1150
f 1156 1152 1151
f 1156 1153 1152
f 1156 1154 1153
f 1156 1155 1154
f 1168 1158 1157
f 1168 1159 1158
f 1168 1160 1159
f 1168 1161 1160
f 1168 1162 1161
f 1168 1163 1162
f 1168 1164 1163
f 1168 1165 1164
f 1168 1166 1165
f 1168 1167 1166

